<svg width="23" height="23" viewBox="0 0 23 23" fill="none" xmlns="http://www.w3.org/2000/svg">
<g id="Eye off" clip-path="url(#clip0_7_12012)">
<g id="Icon">
<path d="M17.1925 17.1925C15.5544 18.4412 13.5596 19.133 11.5 19.1666C4.79171 19.1666 0.958374 11.5 0.958374 11.5C2.15044 9.27846 3.8038 7.33756 5.80754 5.80748M9.48754 4.06331C10.1472 3.90891 10.8226 3.83172 11.5 3.83331C18.2084 3.83331 22.0417 11.5 22.0417 11.5C21.46 12.5883 20.7662 13.6128 19.9717 14.5571M13.5317 13.5316C13.2685 13.8141 12.9511 14.0407 12.5984 14.1978C12.2458 14.3549 11.8651 14.4394 11.479 14.4462C11.093 14.4531 10.7096 14.382 10.3516 14.2374C9.9936 14.0929 9.6684 13.8776 9.39539 13.6046C9.12239 13.3316 8.90717 13.0064 8.76257 12.6484C8.61797 12.2904 8.54696 11.907 8.55377 11.521C8.56058 11.1349 8.64508 10.7542 8.80221 10.4016C8.95935 10.0489 9.18591 9.73152 9.46837 9.46831" fill="#D9D9D9"/>
<path d="M17.1925 17.1925C15.5544 18.4412 13.5596 19.133 11.5 19.1666C4.79171 19.1666 0.958374 11.5 0.958374 11.5C2.15044 9.27846 3.8038 7.33756 5.80754 5.80748M9.48754 4.06331C10.1472 3.90891 10.8226 3.83172 11.5 3.83331C18.2084 3.83331 22.0417 11.5 22.0417 11.5C21.46 12.5883 20.7662 13.6128 19.9717 14.5571M13.5317 13.5316C13.2685 13.8141 12.9511 14.0407 12.5984 14.1978C12.2458 14.3549 11.8651 14.4394 11.479 14.4462C11.093 14.4531 10.7096 14.382 10.3516 14.2374C9.99359 14.0929 9.6684 13.8776 9.39539 13.6046C9.12239 13.3316 8.90717 13.0064 8.76257 12.6484C8.61797 12.2904 8.54696 11.907 8.55377 11.521C8.56058 11.1349 8.64508 10.7542 8.80221 10.4016C8.95935 10.0489 9.18591 9.73152 9.46837 9.46831M0.958374 0.958313L22.0417 22.0416" stroke="#B3B3B3" stroke-linecap="round" stroke-linejoin="round"/>
</g>
</g>
<defs>
<clipPath id="clip0_7_12012">
<rect width="23" height="23" fill="white"/>
</clipPath>
</defs>
</svg>
